# xmcd CD database file generated by Grip 3.2.0
#
# Track frame offsets:
#       150
#       15911
#       26221
#       45447
#       58718
#       79722
#       89919
#       108019
#       119693
#       136952
#       151447
#       166567
#       182042
#       195376
#       210780
#
# Disc length: 2993 seconds
#
# Revision: 0
# Processed by: cddbd v1.5.1PL2 Copyright (c) Steve Scherf et al.
# Submitted via: Grip 3.2.0  GR/20.08.2006
#
DISCID=b60baf0f
DTITLE=Eschville Ramblers - Minett Country
DYEAR=2002
DGENRE=misc
TTITLE0=Fënnfafofzeg nonzéng
TTITLE1=Doheem
TTITLE2=Méng knaschteg al Stad
TTITLE3=Mäi gutt aalt Haus
TTITLE4=En Escher Cowboy
TTITLE5=D'vertrauen
TTITLE6=Méng Famill
TTITLE7=Jacqueline
TTITLE8=D'freed um Liewen
TTITLE9=All Samschden
TTITLE10=Dat schéinste Girl aus dem Minett
TTITLE11=Säi Liewen
TTITLE12=D'Haipchen an der Heck
TTITLE13=Fënnef Lëtzebuerger Jongen
TTITLE14=De Bouf a säin Tramm
EXTD=
EXTT0=
EXTT1=
EXTT2=
EXTT3=
EXTT4=
EXTT5=
EXTT6=
EXTT7=
EXTT8=
EXTT9=
EXTT10=
EXTT11=
EXTT12=
EXTT13=
EXTT14=
PLAYORDER=
